:version 1.10
:name ASF
:units
  mass 1
  length 1
  angle deg
:documentation
  ASF file generated by Kaydara
:root
  axis xyz
  order  tx ty tz rx ry rz
  position 0 0 0
  orientation 0 0 0
:bonedata
  begin
    id 1
    name RightUpLegDummy
    direction -1 2.30186e-007 8.31532e-007
    length 4.04083
    axis 0 0 0 xyz
  end
  begin
    id 2
    name RightUpLeg
    direction -0.000919234 -0.999985 0.00544864
    length 17.4221
    axis -3.80308 -0.00076134 -0.0523649 xyz
    dof rx ry rz
  end
  begin
    id 3
    name RightLeg
    direction -0.000919271 -0.999984 -0.00555045
    length 17.1239
    axis 4.00314 0.0181274 -0.183583 xyz
    dof rx ry rz
  end
  begin
    id 4
    name RightFoot
    direction -2.57843e-005 -4.04509e-007 1
    length 6.72091
    axis 8.18909e-005 -0.122003 -0.403008 xyz
    dof rx ry rz
  end
  begin
    id 5
    name RightToes
    direction 0.00116825 -0.014069 0.9999
    length 3.85082
    axis 0.000514414 0.540638 -0.356797 xyz
    dof rx ry rz
  end
  begin
    id 6
    name SpineDummy
    direction 0.0168869 0.966876 -0.254689
    length 6.99894
    axis 0 0 0 xyz
  end
  begin
    id 7
    name Spine
    direction -0.0132008 0.999903 0.00446247
    length 11.1999
    axis -0.00148109 0.00725429 0.756411 xyz
    dof rx ry rz
  end
  begin
    id 8
    name Spine1
    direction 0 0 0
    length 0
    axis -0.000934958 0.0245693 1.46543 xyz
    dof rx ry rz
  end
  begin
    id 9
    name HEadDummy
    direction -0.0255732 0.999672 0.00128215
    length 3.43865
    axis -0.000934958 0.0245693 1.46543 xyz
  end
  begin
    id 10
    name HEad
    direction -0.0472656 0.980052 0.19304
    length 5.12695
    axis -0.000934954 0.0245693 1.46543 xyz
    dof rx ry rz
  end
  begin
    id 11
    name LeftShoulder1Dummy
    direction 0.953098 0.301717 -0.023914
    length 3.68488
    axis -0.000934958 0.0245693 1.46543 xyz
  end
  begin
    id 12
    name LeftShoulder1
    direction 0.962466 0.271167 0.0112566
    length 3.13809
    axis -0.000934958 0.0245693 1.46543 xyz
    dof rx ry rz
  end
  begin
    id 13
    name LeftArm
    direction 0.999943 0.00455037 -0.00961766
    length 11.3419
    axis -23.1648 0.685459 1.22814 xyz
    dof rx ry rz
  end
  begin
    id 14
    name LeftForeArm
    direction 0.999332 0.0131969 0.0340885
    length 8.70632
    axis -9.90633 0.618216 0.0826942 xyz
    dof rx ry rz
  end
  begin
    id 15
    name LeftHand
    direction 0.994373 -0.0366703 0.0993905
    length 5.32135
    axis 0.00675269 0.680415 0.445699 xyz
    dof rx ry rz
  end
  begin
    id 16
    name RightShoulderDummy
    direction -0.967298 0.252589 -0.0230903
    length 3.68488
    axis -0.000934958 0.0245693 1.46543 xyz
  end
  begin
    id 17
    name RightShoulder
    direction -0.975062 0.221602 0.0120823
    length 3.13809
    axis 0.216257 0.0246515 1.45863 xyz
    dof rx ry rz
  end
  begin
    id 18
    name RightArm
    direction -0.99886 -0.00851186 -0.0469687
    length 10.3947
    axis -23.196 0.23503 -0.532632 xyz
    dof rx ry rz
  end
  begin
    id 19
    name RightForeArm
    direction -0.99909 0.00114866 0.0426317
    length 8.68355
    axis -9.91764 -0.134943 0.610517 xyz
    dof rx ry rz
  end
  begin
    id 20
    name RightHand
    direction -0.992888 -0.0489538 0.10852
    length 5.28593
    axis -0.00275396 -0.197403 0.246414 xyz
    dof rx ry rz
  end
  begin
    id 21
    name LeftUpLegDummy
    direction 1 -2.30186e-007 -8.31532e-007
    length 4.04083
    axis 0 0 0 xyz
  end
  begin
    id 22
    name LeftUpLeg
    direction -0.000920097 -1 2.79241e-006
    length 17.4221
    axis -3.48782 0.00143434 -0.0532288 xyz
    dof rx ry rz
  end
  begin
    id 23
    name LeftLeg
    direction -0.000920097 -1 2.7912e-006
    length 17.1239
    axis 3.68162 -0.00806512 -0.0529896 xyz
    dof rx ry rz
  end
  begin
    id 24
    name LeftFoot
    direction -2.57845e-005 -3.987e-007 1
    length 6.72091
    axis 3.02372e-005 -0.00147829 -0.214229 xyz
    dof rx ry rz
  end
  begin
    id 25
    name LeftToes
    direction 0.00813577 -0.00488255 0.999955
    length 3.85048
    axis 3.89895e-005 -0.0014783 -0.214229 xyz
    dof rx ry rz
  end
:hierarchy
  begin
    root RightUpLegDummy SpineDummy LeftUpLegDummy
    RightUpLegDummy RightUpLeg
    RightUpLeg RightLeg
    RightLeg RightFoot
    RightFoot RightToes
    SpineDummy Spine
    Spine Spine1
    Spine1 HEadDummy LeftShoulder1Dummy RightShoulderDummy
    HEadDummy HEad
    LeftShoulder1Dummy LeftShoulder1
    LeftShoulder1 LeftArm
    LeftArm LeftForeArm
    LeftForeArm LeftHand
    RightShoulderDummy RightShoulder
    RightShoulder RightArm
    RightArm RightForeArm
    RightForeArm RightHand
    LeftUpLegDummy LeftUpLeg
    LeftUpLeg LeftLeg
    LeftLeg LeftFoot
    LeftFoot LeftToes
  end

:SAMPLES-PER-SECOND 30
:FULLY-SPECIFIED
:DEGREES
74
root  -43.4164 34.6965 23.0578 -170.108 62.6523 -178.244
RightUpLeg  -6.31285 -18.3526 -3.5985
RightLeg  3.01235 -0.793477 0.0100535
RightFoot  9.50516 0.0367516 0.0279441
RightToes  -33.3075 -0.165202 -0.272345
Spine  -2.14068 0.00612499 0.14338
Spine1  -4.33653 0.105872 0.942737
HEad  -67.3477 -0.437226 3.0221
LeftShoulder1  -1.94126e-019 -3.10601e-018 -2.51263e-017
LeftArm  -10.0431 23.5473 -81.0441
LeftForeArm  34.812 -17.2661 -2.72074
LeftHand  -0.464748 -2.04695 7.28167
RightShoulder  -4.96962e-017 0 -2.36833e-017
RightArm  -24.5405 -21.9299 78.2579
RightForeArm  58.644 13.9453 1.23025
RightHand  -0.357474 -1.0069 -10.1986
LeftUpLeg  -5.2348 7.88267 5.2587
LeftLeg  3.70285 13.4332 0.00437873
LeftFoot  7.76811 -0.117534 1.97921
LeftToes  -29.443 2.32378e-006 -5.43956e-008
75
root  -43.4199 34.698 23.0587 -170.112 62.6749 -178.245
RightUpLeg  -6.31219 -18.3777 -3.60017
RightLeg  2.98863 -0.750734 0.0059173
RightFoot  9.53041 0.0362994 0.0344065
RightToes  -33.3174 -0.165202 -0.272345
Spine  -2.14323 0.00573488 0.14526
Spine1  -4.34561 0.0993731 0.945307
HEad  -67.3758 -0.532025 2.96457
LeftShoulder1  -1.94126e-019 -3.10601e-018 -2.51263e-017
LeftArm  -10.0327 23.5457 -81.0208
LeftForeArm  34.8232 -17.2144 -2.71678
LeftHand  -0.464167 -2.06045 7.29961
RightShoulder  -4.96962e-017 0 -2.36833e-017
RightArm  -24.4902 -21.9332 78.2251
RightForeArm  58.6611 13.9463 1.22975
RightHand  -0.3566 -0.995314 -10.1866
LeftUpLeg  -5.22929 7.9196 5.25287
LeftLeg  3.68169 13.4244 -0.000535053
LeftFoot  7.7911 -0.117572 1.98367
LeftToes  -29.386 2.32378e-006 -5.43956e-008
76
root  -43.4239 34.6995 23.0611 -170.116 62.6898 -178.25
RightUpLeg  -6.31262 -18.3683 -3.59924
RightLeg  2.9703 -0.738848 0.00492012
RightFoot  9.53719 0.0361759 0.0361702
RightToes  -33.2547 -0.165202 -0.272345
Spine  -2.14503 0.00535129 0.147811
Spine1  -4.35186 0.0939944 0.952185
HEad  -67.1753 -0.553488 2.85477
LeftShoulder1  -1.94126e-019 -3.10601e-018 -2.51263e-017
LeftArm  -9.9673 23.5664 -81.0009
LeftForeArm  34.8741 -17.1421 -2.70859
LeftHand  -0.463796 -2.06061 7.29748
RightShoulder  -4.96962e-017 0 -2.36833e-017
RightArm  -24.4466 -21.9424 78.1836
RightForeArm  58.6568 13.9486 1.22902
RightHand  -0.353928 -0.965224 -10.2404
LeftUpLeg  -5.22605 7.92101 5.24786
LeftLeg  3.66592 13.43 -0.00419389
LeftFoot  7.80902 -0.117682 1.98895
LeftToes  -29.3715 2.32378e-006 -5.43956e-008
77
root  -43.4301 34.7007 23.0651 -170.119 62.6989 -178.255
RightUpLeg  -6.31488 -18.3115 -3.5948
RightLeg  2.95539 -0.793125 0.012292
RightFoot  9.55321 0.0368143 0.0270481
RightToes  -33.2075 -0.165202 -0.272345
Spine  -2.14662 0.00477764 0.150388
Spine1  -4.3613 0.0889084 0.96096
HEad  -67.1535 -0.528209 2.85612
LeftShoulder1  -1.94126e-019 -3.10601e-018 -2.51263e-017
LeftArm  -9.86764 23.6131 -80.9812
LeftForeArm  34.8309 -17.0586 -2.69828
LeftHand  -0.462558 -2.05372 7.33074
RightShoulder  -4.96962e-017 0 -2.36833e-017
RightArm  -24.3931 -21.9482 78.1309
RightForeArm  58.6542 13.9505 1.22845
RightHand  -0.35244 -0.976433 -10.2583
LeftUpLeg  -5.22479 7.84728 5.24147
LeftLeg  3.65411 13.527 -0.0069818
LeftFoot  7.83118 -0.118725 2.00842
LeftToes  -29.3876 2.32378e-006 -5.43956e-008
78
root  -43.4318 34.7016 23.0673 -170.12 62.7017 -178.259
RightUpLeg  -6.31698 -18.3137 -3.5947
RightLeg  2.93568 -0.786586 0.0110112
RightFoot  9.55896 0.0367491 0.0279799
RightToes  -33.2251 -0.165202 -0.272345
Spine  -2.1473 0.00354036 0.152346
Spine1  -4.35563 0.0807869 0.964444
HEad  -67.1505 -0.546027 2.84973
LeftShoulder1  -1.94126e-019 -3.10601e-018 -2.51263e-017
LeftArm  -9.84736 23.6398 -80.965
LeftForeArm  34.8241 -16.9711 -2.68869
LeftHand  -0.462943 -2.0993 7.30691
RightShoulder  -4.96962e-017 0 -2.36833e-017
RightArm  -24.3783 -21.9403 78.1016
RightForeArm  58.6686 13.952 1.22806
RightHand  -0.354331 -0.967526 -10.174
LeftUpLeg  -5.22629 7.85016 5.24139
LeftLeg  3.63726 13.5217 -0.0109159
LeftFoot  7.83722 -0.118594 2.00933
LeftToes  -29.3323 2.32378e-006 -5.43956e-008
79
root  -43.4351 34.7022 23.0677 -170.124 62.6956 -178.263
RightUpLeg  -6.32179 -18.3208 -3.59501
RightLeg  2.93349 -0.787395 0.0104303
RightFoot  9.57274 0.0367949 0.0273255
RightToes  -33.2184 -0.165202 -0.272345
Spine  -2.1445 0.00231618 0.153538
Spine1  -4.34985 0.0773079 0.966346
HEad  -67.1387 -0.572294 2.85113
LeftShoulder1  -1.94126e-019 -3.10601e-018 -2.51263e-017
LeftArm  -9.81611 23.6657 -80.9541
LeftForeArm  34.8544 -16.8777 -2.67719
LeftHand  -0.461443 -2.09528 7.34732
RightShoulder  -4.96962e-017 0 -2.36833e-017
RightArm  -24.3566 -21.9307 78.0645
RightForeArm  58.6838 13.9318 1.23316
RightHand  -0.353089 -0.984995 -10.1972
LeftUpLeg  -5.23489 7.89844 5.24368
LeftLeg  3.63775 13.4609 -0.0107567
LeftFoot  7.85616 -0.118116 2.00449
LeftToes  -29.3587 2.32378e-006 -5.43956e-008
80
root  -43.4414 34.7026 23.073 -170.134 62.6709 -178.275
RightUpLeg  -6.33148 -18.3377 -3.59608
RightLeg  2.93647 -0.791572 0.00985629
RightFoot  9.56728 0.0368842 0.0260498
RightToes  -33.1927 -0.165202 -0.272345
Spine  -2.13536 0.00263397 0.154308
Spine1  -4.33136 0.0837099 0.966967
HEad  -67.1079 -0.679162 2.91286
LeftShoulder1  -1.94126e-019 -3.10601e-018 -2.51263e-017
LeftArm  -9.80371 23.6888 -80.938
LeftForeArm  34.8633 -16.6805 -2.65101
LeftHand  -0.461011 -2.04546 7.31062
RightShoulder  -4.96962e-017 0 -2.36833e-017
RightArm  -24.3102 -21.9317 78.0089
RightForeArm  58.6943 13.9215 1.23587
RightHand  -0.351712 -0.998771 -10.2327
LeftUpLeg  -5.25915 7.94462 5.24565
LeftLeg  3.6454 13.3934 -0.00893503
LeftFoot  7.87093 -0.11761 1.99887
LeftToes  -29.3853 2.32378e-006 -5.43956e-008
81
root  -43.444 34.7029 23.0757 -170.14 62.6557 -178.282
RightUpLeg  -6.33477 -18.3391 -3.59601
RightLeg  2.93707 -0.798401 0.00935025
RightFoot  9.56581 0.0370015 0.0243735
RightToes  -33.222 -0.165202 -0.272345
Spine  -2.13046 0.0065453 0.154746
Spine1  -4.32141 0.0911838 0.966608
HEad  -67.097 -0.79804 2.96998
LeftShoulder1  -1.94126e-019 -3.10601e-018 -2.51263e-017
LeftArm  -9.81808 23.702 -80.9295
LeftForeArm  34.8911 -16.5842 -2.63781
LeftHand  -0.459144 -2.04481 7.36343
RightShoulder  -4.96962e-017 0 -2.36833e-017
RightArm  -24.2911 -21.9381 77.9879
RightForeArm  58.7016 13.9188 1.23674
RightHand  -0.351661 -0.998115 -10.2341
LeftUpLeg  -5.2689 7.94168 5.24444
LeftLeg  3.64735 13.3733 -0.00893346
LeftFoot  7.87375 -0.117348 1.99666
LeftToes  -29.3544 2.32378e-006 -5.43956e-008
82
root  -43.4489 34.7029 23.08 -170.15 62.6221 -178.295
RightUpLeg  -6.34799 -18.3608 -3.59743
RightLeg  2.95506 -0.818731 0.0105591
RightFoot  9.56645 0.0371314 0.0225174
RightToes  -33.2 -0.165202 -0.272345
Spine  -2.12105 0.0145026 0.154941
Spine1  -4.30265 0.106856 0.965569
HEad  -67.0492 -0.825073 2.97375
LeftShoulder1  -1.94126e-019 -3.10601e-018 -2.51263e-017
LeftArm  -9.85192 23.7278 -80.9276
LeftForeArm  34.8658 -16.4882 -2.62315
LeftHand  -0.457312 -2.00561 7.37078
RightShoulder  -4.96962e-017 0 -2.36833e-017
RightArm  -24.2752 -21.9404 77.9583
RightForeArm  58.6764 13.9096 1.23932
RightHand  -0.352711 -0.995509 -10.2084
LeftUpLeg  -5.29607 7.94605 5.24359
LeftLeg  3.66749 13.3384 -0.0055974
LeftFoot  7.87158 -0.117185 1.99561
LeftToes  -29.3454 2.32378e-006 -5.43956e-008
83
root  -43.4513 34.7027 23.0822 -170.154 62.6023 -178.301
RightUpLeg  -6.35595 -18.3666 -3.59764
RightLeg  2.96544 -0.824192 0.00975194
RightFoot  9.56944 0.0372584 0.0207023
RightToes  -33.1898 -0.165202 -0.272345
Spine  -2.11628 0.0163708 0.154982
Spine1  -4.2932 0.110563 0.964152
HEad  -67.0036 -0.852338 2.97847
LeftShoulder1  -1.94126e-019 -3.10601e-018 -2.51263e-017
LeftArm  -9.86921 23.7287 -80.9261
LeftForeArm  34.86 -16.4399 -2.61576
LeftHand  -0.456769 -2.01268 7.38869
RightShoulder  -4.96962e-017 0 -2.36833e-017
RightArm  -24.2771 -21.9388 77.954
RightForeArm  58.6858 13.9119 1.23912
RightHand  -0.353609 -0.996085 -10.1965
LeftUpLeg  -5.31272 7.95712 5.24309
LeftLeg  3.67974 13.3025 -0.00103118
LeftFoot  7.88805 -0.117073 1.99493
LeftToes  -29.4436 2.32378e-006 -5.43956e-008
84
root  -43.458 34.7018 23.0882 -170.172 62.5457 -178.321
RightUpLeg  -6.37052 -18.4092 -3.60051
RightLeg  2.9874 -0.843336 0.0110032
RightFoot  9.55141 0.0373671 0.0191488
RightToes  -33.207 -0.165202 -0.272345
Spine  -2.10144 0.0254524 0.154957
Spine1  -4.26369 0.128726 0.962658
HEad  -66.8537 -0.867913 2.96401
LeftShoulder1  -1.94126e-019 -3.10601e-018 -2.51263e-017
LeftArm  -9.88847 23.7453 -80.9375
LeftForeArm  34.8696 -16.3768 -2.60443
LeftHand  -0.456744 -2.00751 7.38748
RightShoulder  -4.96962e-017 0 -2.36833e-017
RightArm  -24.295 -21.9316 77.9599
RightForeArm  58.6738 13.919 1.23778
RightHand  -0.354256 -0.999412 -10.2024
LeftUpLeg  -5.35299 7.92624 5.23998
LeftLeg  3.70272 13.2935 0.000790338
LeftFoot  7.89779 -0.117008 1.99454
LeftToes  -29.4759 2.32378e-006 -5.43956e-008
85
root  -43.4604 34.701 23.0922 -170.18 62.5204 -178.329
RightUpLeg  -6.37494 -18.4161 -3.60067
RightLeg  2.99341 -0.851924 0.0110199
RightFoot  9.54528 0.0374529 0.0179227
RightToes  -33.2201 -0.165202 -0.272345
Spine  -2.09324 0.0302448 0.154957
Spine1  -4.24728 0.138333 0.961387
HEad  -66.8089 -0.871788 2.99473
LeftShoulder1  -1.94126e-019 -3.10601e-018 -2.51263e-017
LeftArm  -9.88098 23.7552 -80.9415
LeftForeArm  34.8797 -16.3616 -2.60122
LeftHand  -0.456505 -2.02078 7.41547
RightShoulder  -4.96962e-017 0 -2.36833e-017
RightArm  -24.2881 -21.9242 77.9759
RightForeArm  58.6775 13.9234 1.23719
RightHand  -0.354817 -1.01868 -10.2202
LeftUpLeg  -5.36615 7.88791 5.23642
LeftLeg  3.7082 13.2975 0.00143273
LeftFoot  7.88114 -0.116984 1.99436
LeftToes  -29.3741 2.32378e-006 -5.43956e-008
